<svg width="450" height="450" viewBox="0 0 450 450" fill="none" xmlns="http://www.w3.org/2000/svg">
<path d="M207.787 100.626C244.267 94.4928 282.987 105.986 310.64 130.426C328.227 146.093 341.4 166.519 349.24 188.679C354.84 205.453 354.773 223.52 352.467 240.88C348.24 264.32 338.48 286.906 323.28 305.333C310.387 319.906 294.227 331.706 276.333 339.359C250.627 350.933 221.08 352.813 193.733 346.666C159.72 339.199 130.32 316.453 111.693 287.413C101.573 270.626 96.7867 251.013 96 231.546C96.2533 212.693 100.413 193.893 108.187 176.706C111.813 169.839 115.347 162.933 119.493 156.359C139.693 126.786 172.24 105.813 207.787 100.626Z" fill="#FFDB5D" stroke="white" stroke-width="0.333333"/>
</svg>
